# xmcd
#
# Track frame offsets:
#	150
#	15725
#	26432
#	40205
#	59497
#	74247
#	84975
#	98120
#	110200
#	123997
#	140367
#	153412
#
# Disc length: 2247 seconds
#
# Revision: 0
# Processed by: cddbd v1.5.2PL0 Copyright (c) Steve Scherf et al.
# Submitted via: dBpowerAMP V4.0
#
DISCID=a508c50c
DTITLE=Various Artist - Veterani
DYEAR=1900
DGENRE=Trampske
TTITLE0=Veterani - Maminko mamo
TTITLE1=Ty jsi bejval mou laskou
TTITLE2=Kakami si dest
TTITLE3=Texaska ruze
TTITLE4=Dul McLaren
TTITLE5=Balicek cokolady
TTITLE6=Modlitba
TTITLE7=Texas
TTITLE8=Kalifornske blues
TTITLE9=Jeans bunda
TTITLE10=Cerne hory
TTITLE11=Hrozive Cerne hory
EXTD=Veterani: Stepanek, Chlumsky, Suchy, Cistecka, Vejmelka, Kostriz\nHoste: Koubek, Strizovsky, Satoplet ,Jirka
EXTT0=
EXTT1=
EXTT2=
EXTT3=
EXTT4=
EXTT5=
EXTT6=
EXTT7=
EXTT8=
EXTT9=
EXTT10=
EXTT11=
PLAYORDER=
